<?xml version="1.0" encoding="UTF-8" standalone="no"?>
<svg
   width="800px"
   height="800px"
   viewBox="0 0 24 24"
   version="1.1"
   id="svg9"
   sodipodi:docname="speaker-1-svgrepo-com.svg"
   inkscape:version="1.2.2 (b0a8486541, 2022-12-01)"
   xmlns:inkscape="http://www.inkscape.org/namespaces/inkscape"
   xmlns:sodipodi="http://sodipodi.sourceforge.net/DTD/sodipodi-0.dtd"
   xmlns="http://www.w3.org/2000/svg"
   xmlns:svg="http://www.w3.org/2000/svg">
  <defs
     id="defs13" />
  <sodipodi:namedview
     id="namedview11"
     pagecolor="#ffffff"
     bordercolor="#000000"
     borderopacity="0.25"
     inkscape:showpageshadow="2"
     inkscape:pageopacity="0.0"
     inkscape:pagecheckerboard="0"
     inkscape:deskcolor="#d1d1d1"
     showgrid="false"
     inkscape:zoom="1.2525"
     inkscape:cx="263.07385"
     inkscape:cy="400"
     inkscape:window-width="1452"
     inkscape:window-height="1205"
     inkscape:window-x="3375"
     inkscape:window-y="456"
     inkscape:window-maximized="0"
     inkscape:current-layer="svg9" />
  <!-- Uploaded to: SVG Repo, www.svgrepo.com, Generator: SVG Repo Mixer Tools -->
  <title
     id="title2">ic_fluent_speaker_1_24_filled</title>
  <desc
     id="desc4">Created with Sketch.</desc>
  <g
     id="ic_fluent_speaker_1_24_filled"
     fill="#212121"
     fill-rule="nonzero"
     style="stroke:none;stroke-width:1;fill:#3da9fc;fill-opacity:1">
    <path
       d="M 14.704146,3.4424957 C 14.895174,3.6682064 15,3.9543292 15,4.2500264 V 19.751657 c 0,0.690356 -0.559644,1.25 -1.25,1.25 -0.295793,0 -0.582002,-0.104894 -0.807743,-0.296034 L 7.9751287,16.499854 H 4.25 c -1.2426407,0 -2.25,-1.007359 -2.25,-2.25 V 9.7498542 c 0,-1.2426406 1.0073593,-2.25 2.25,-2.25 H 7.9752232 L 12.942469,3.2958806 c 0.526961,-0.4459868 1.31569,-0.380345 1.761677,0.1466151 z m 2.399393,5.1977196 c 0.353562,-0.2157937 0.815115,-0.1041106 1.030909,0.2494511 0.573802,0.9401315 0.861284,1.9921776 0.861284,3.1407296 0,1.148552 -0.287482,2.200597 -0.861284,3.140729 -0.215794,0.353562 -0.677347,0.465245 -1.030909,0.249451 -0.353562,-0.215794 -0.465245,-0.677348 -0.249451,-1.03091 0.42815,-0.701491 0.641644,-1.482778 0.641644,-2.35927 0,-0.876492 -0.213494,-1.65778 -0.641644,-2.3592713 -0.215794,-0.3535618 -0.104111,-0.8151156 0.249451,-1.0309094 z"
       id="🎨-Color"
       style="fill:#3da9fc;fill-opacity:1" />
  </g>
</svg>
