<?xml version="1.0" encoding="UTF-8" standalone="no"?>
<!-- Uploaded to: SVG Repo, www.svgrepo.com, Generator: SVG Repo Mixer Tools -->

<svg
   width="800px"
   height="800px"
   viewBox="0 0 28 28"
   fill="none"
   version="1.1"
   id="svg911"
   sodipodi:docname="speaker-none-svgrepo-com.svg"
   inkscape:version="1.2.2 (b0a8486541, 2022-12-01)"
   xmlns:inkscape="http://www.inkscape.org/namespaces/inkscape"
   xmlns:sodipodi="http://sodipodi.sourceforge.net/DTD/sodipodi-0.dtd"
   xmlns="http://www.w3.org/2000/svg"
   xmlns:svg="http://www.w3.org/2000/svg">
  <defs
     id="defs915" />
  <sodipodi:namedview
     id="namedview913"
     pagecolor="#ffffff"
     bordercolor="#000000"
     borderopacity="0.25"
     inkscape:showpageshadow="2"
     inkscape:pageopacity="0.0"
     inkscape:pagecheckerboard="0"
     inkscape:deskcolor="#d1d1d1"
     showgrid="false"
     inkscape:zoom="1.2525"
     inkscape:cx="400"
     inkscape:cy="400"
     inkscape:window-width="1452"
     inkscape:window-height="1205"
     inkscape:window-x="3114"
     inkscape:window-y="493"
     inkscape:window-maximized="0"
     inkscape:current-layer="svg911" />
  <path
     d="M16.5 4.81425C16.5 3.71986 15.1932 3.15384 14.395 3.90244L9.45826 8.53182C9.13388 8.836 8.70587 9.00529 8.26119 9.00529H5.25C3.45508 9.00529 2 10.4604 2 12.2553V15.7473C2 17.5422 3.45507 18.9973 5.25 18.9973H8.26174C8.70619 18.9973 9.134 19.1664 9.45832 19.4703L14.3953 24.0964C15.1937 24.8446 16.5 24.2785 16.5 23.1843V4.81425Z"
     fill="#212121"
     id="path907"
     style="fill:#3da9fc" />
  <path
     d="M19.7824 10.7216C19.4905 10.4277 19.0157 10.4259 18.7217 10.7177C18.4277 11.0095 18.426 11.4844 18.7178 11.7784L20.9359 14.0128L18.7208 16.2186C18.4273 16.5108 18.4263 16.9857 18.7186 17.2792C19.0108 17.5727 19.4857 17.5737 19.7792 17.2814L21.9965 15.0735L24.2217 17.2823C24.5157 17.5741 24.9906 17.5723 25.2824 17.2784C25.5742 16.9844 25.5724 16.5095 25.2784 16.2177L23.0572 14.0128L25.2815 11.7792C25.5738 11.4857 25.5728 11.0109 25.2793 10.7186C24.9858 10.4263 24.5109 10.4273 24.2186 10.7208L21.9965 12.9521L19.7824 10.7216Z"
     fill="#212121"
     id="path909"
     style="fill:#3da9fc" />
</svg>
