<?xml version="1.0" encoding="UTF-8" standalone="no"?>
<svg
   width="800px"
   height="800px"
   viewBox="0 0 24 24"
   version="1.1"
   id="svg5016"
   sodipodi:docname="video-play-pause-svgrepo-com.svg"
   inkscape:version="1.2.2 (b0a8486541, 2022-12-01)"
   xmlns:inkscape="http://www.inkscape.org/namespaces/inkscape"
   xmlns:sodipodi="http://sodipodi.sourceforge.net/DTD/sodipodi-0.dtd"
   xmlns="http://www.w3.org/2000/svg"
   xmlns:svg="http://www.w3.org/2000/svg">
  <defs
     id="defs5020" />
  <sodipodi:namedview
     id="namedview5018"
     pagecolor="#ffffff"
     bordercolor="#000000"
     borderopacity="0.25"
     inkscape:showpageshadow="2"
     inkscape:pageopacity="0.0"
     inkscape:pagecheckerboard="0"
     inkscape:deskcolor="#d1d1d1"
     showgrid="false"
     inkscape:zoom="1.2525"
     inkscape:cx="400"
     inkscape:cy="400"
     inkscape:window-width="1452"
     inkscape:window-height="1205"
     inkscape:window-x="3114"
     inkscape:window-y="493"
     inkscape:window-maximized="0"
     inkscape:current-layer="svg5016" />
  <!-- Uploaded to: SVG Repo, www.svgrepo.com, Generator: SVG Repo Mixer Tools -->
  <title
     id="title5009">ic_fluent_video_play_pause_24_filled</title>
  <desc
     id="desc5011">Created with Sketch.</desc>
  <g
     id="ic_fluent_video_play_pause_24_filled"
     fill="#212121"
     fill-rule="nonzero"
     style="stroke:none;stroke-width:1;fill:#ef4565">
    <path
       d="m 3.6514098,6.6164622 7.5014692,4.7529338 c 0.214389,0.135837 0.329881,0.353279 0.346496,0.577042 L 11.498459,7.25 c 0,-0.4142136 0.335787,-0.75 0.75,-0.75 h 3 c 0.414214,0 0.75,0.3357864 0.75,0.75 v 9.5 c 0,0.414214 -0.335786,0.75 -0.75,0.75 h -3 c -0.414213,0 -0.75,-0.335786 -0.75,-0.75 l 8.9e-4,-4.690237 c -0.01672,0.223784 -0.132332,0.441198 -0.346824,0.576933 L 3.651056,17.383762 C 3.1516814,17.699775 2.5,17.340965 2.5,16.75 V 7.25 C 2.5,6.6588468 3.1520526,6.3000693 3.6514098,6.6164622 Z M 21.247709,6.5003747 c 0.414213,0 0.75,0.3357865 0.75,0.75 v 9.4992503 c 0,0.414214 -0.335787,0.75 -0.75,0.75 h -3 c -0.414214,0 -0.75,-0.335786 -0.75,-0.75 V 7.2503747 c 0,-0.4142135 0.335786,-0.75 0.75,-0.75 z"
       id="🎨-Color"
       style="fill:#ef4565" />
  </g>
</svg>
